<svg width="9" height="11" viewBox="0 0 9 11" fill="none" xmlns="http://www.w3.org/2000/svg">
<path d="M4.26607 0.351273C2.16487 0.351273 0.513916 2.07727 0.513916 4.17848C0.513916 6.72994 3.89087 10.5571 4.04095 10.7072C4.19104 10.8573 4.41618 10.8573 4.56626 10.7072C4.71635 10.5571 8.09328 6.72994 8.09328 4.17848C8.01824 2.00223 6.36728 0.351273 4.26607 0.351273ZM4.26607 6.05456C3.21547 6.05456 2.38999 5.22908 2.38999 4.17848C2.38999 3.12787 3.21547 2.22735 4.26607 2.22735C5.31668 2.22735 6.14215 3.05283 6.14215 4.17848C6.14215 5.15404 5.31668 6.05456 4.26607 6.05456Z" fill="#009FE3"/>
</svg>
