<svg width="351" height="284" viewBox="0 0 351 284" fill="none" xmlns="http://www.w3.org/2000/svg">
<path d="M17.5 262.4C25.2 239.6 34.7 220.6 45.8 198.7C53.4 183.7 61.2 168.2 69.2 149.9C92.4 96.6999 117.1 68.4999 149.6 58.1999C164 53.5999 178 52 193 50.3C217.3 47.5 242.7 44.6 273.6 28.3C307.5 10.4 335.7 9.39995 350.3 10.5999V9.79996C345.4 9.39996 339 9.29993 331.4 9.89993C316 11.1999 295.9 15.6999 273.1 27.6999C242.5 43.8999 217.2 46.7999 193 49.5999C178 51.2999 164 52.8999 149.4 57.5999C116.6 68.0999 91.7 96.3999 68.4 149.9C60.4 168.3 52.6 183.7 45 198.7C33.9 220.6 24.4 239.6 16.7 262.5C14.6 268.9 12.8 276.2 11.3 283.9H12.2C13.6 276 15.3 268.8 17.5 262.4Z" fill="url(#paint0_linear_2_70)"/>
<path d="M15.5 258.3C23 238.8 31.6 222.3 40.8 204.7C50 187 59.5 168.8 68.8 146C89.4 95.1 116.9 64.8999 151.1 55.5999C164.7 51.8999 177.8 50.5 191.7 49C216.8 46.2 243.1 43.3999 274.2 26.3999C307 8.49993 335.5 6.79996 350.2 7.49996V6.69992C345.9 6.49992 340.4 6.49996 334 6.99996C318.3 8.29996 297.2 12.8999 273.8 25.6999C242.9 42.4999 216.7 45.3999 191.7 48.1999C177.7 49.6999 164.6 51.1999 151 54.8999C116.5 64.2999 88.7 94.6999 68 145.9C58.8 168.7 49.3 186.9 40.1 204.5C30.9 222 22.3 238.6 14.8 258.1C11.9 265.6 9.70001 274.3 7.90001 283.7H8.8C10.5 274.4 12.7 265.7 15.5 258.3Z" fill="url(#paint1_linear_2_70)"/>
<path d="M13.6 254.2C20.9 237.3 28.7 223.1 36.9 208.1C47.6 188.6 58.6 168.5 68.5 142.1C86.8 93.2999 117.2 61 152.8 53C165.4 50.2 177.9 48.8999 190.1 47.5999C216.2 44.8999 243.5 42.1999 275 24.3999C306.8 6.49993 335.4 4.09993 350.3 4.39993V3.59994C346.6 3.49994 342.2 3.59994 337 4.09994C321 5.49994 298.7 10.2 274.6 23.8C243.3 41.4 216.1 44.1999 190.2 46.8999C178 48.1999 165.4 49.4 152.8 52.3C134.1 56.5 117.1 66.8999 102.2 83.1999C88.5 98.1999 76.6 118.5 67.8 141.9C58 168.2 47 188.3 36.3 207.7C28.1 222.7 20.3 236.9 13 253.8C9.30002 262.3 6.60002 272.6 4.50002 283.6H5.40001C7.30001 272.8 10 262.6 13.6 254.2Z" fill="url(#paint2_linear_2_70)"/>
<path d="M21.3 270.8C28.9 238.2 43.1 210.2 61 175C63.8 169.4 66.7 163.7 69.7 157.7C91.1 115.1 109.4 78.6999 146.2 63.2999C161.9 56.6999 177.5 54.7999 194.1 52.7999C216.2 50.0999 241.4 47.0999 271.9 31.9999C307.8 14.1999 335.8 14.3999 350.1 16.4999V15.5999C344.2 14.7999 336.2 14.2999 326.4 15.0999C311.7 16.2999 293 20.5999 271.4 31.2999C241.2 46.2999 216 49.3999 194 51.9999C177.3 53.9999 161.7 55.8999 145.8 62.5999C108.6 78.1999 90.2 114.8 68.8 157.5C65.8 163.5 62.9 169.2 60.1 174.8C42.2 210 28 238 20.3 270.7C19.3 274.8 18.5 279.1 17.7 283.7H18.6C19.5 279.2 20.4 274.8 21.3 270.8Z" fill="url(#paint3_linear_2_70)"/>
<path d="M96 133.7C107.3 110.7 117.1 90.8999 138.3 76.0999C155.4 64.1999 172.9 62.0999 193.3 59.6999C214 57.2999 237.8 54.4999 268.2 41.2999C308.9 23.5999 336.3 26.9999 350.1 31.1999V30.1999C346.7 29.1999 342.6 28.1999 337.7 27.5999C332.3 26.8999 325.5 26.5999 317.4 27.2999C304.3 28.3999 287.7 31.9999 267.8 40.5999C237.5 53.7999 213.9 56.4999 193.3 58.8999C172.7 61.2999 155.1 63.3999 137.8 75.5C116.3 90.5 106.5 110.3 95.2 133.5C88.3 147.4 81.2 161.8 70.8 177.1C44.3 215.8 30.9 250.7 30.2 283.7H31.1C31.8 250.8 45.1 216.1 71.6 177.5C82 162.2 89.1 147.7 96 133.7Z" fill="url(#paint4_linear_2_70)"/>
<path d="M1.70003 283.7C4.00003 271.2 7.20002 259.4 11.6 250.1C18.7 235.2 26.3 222.1 33.6 209.6C45.6 188.9 58 167.5 68 138.3C84.4 90.6 117.2 57.1999 154.2 50.5999C165.5 48.5999 176.7 47.5 187.6 46.5C214.9 44 243.4 41.3999 275.5 22.6999C306.3 4.79992 335 1.69995 350 1.59995V0.799957C347.1 0.799957 343.7 0.999957 339.9 1.29996C323.7 2.69996 300 7.49994 275 22.0999C243.1 40.5999 214.7 43.1999 187.6 45.6999C176.7 46.6999 165.4 47.7 154.1 49.8C135.1 53.2 117.1 63.4 101.8 79.3C87.1 94.6 75.1 114.9 67.1 138.2C57.1 167.3 45.3 187.7 32.7 209.3C25.4 221.9 17.8 234.9 10.7 249.9C6.20003 259.3 3.00001 271.2 0.700012 283.8H1.70003V283.7Z" fill="url(#paint5_linear_2_70)"/>
<path d="M19.4 266.6C27.1 239.5 38.8 216.1 52.2 189.3C57.7 178.2 63.5 166.7 69.5 153.9C92 105.8 112.9 73.7 148 60.8C163.1 55.2 178 53.4999 193.8 51.5999C217.5 48.7999 242.2 45.7999 272.8 30.1999C307.7 12.2999 335.8 11.9999 350.3 13.5999V12.6999C344.9 12.0999 337.6 11.8 328.9 12.5C313.9 13.8 294.5 18.0999 272.4 29.3999C242 44.9999 217.4 47.8999 193.8 50.6999C177.9 52.5999 163 54.4 147.8 60C112.4 73.1 91.4 105.3 68.8 153.6C62.8 166.4 57.1 177.9 51.5 189C38.1 215.9 26.4 239.3 18.7 266.5C17.2 271.8 15.9 277.6 14.7 283.7H15.6C16.6 277.6 17.9 271.8 19.4 266.6Z" fill="url(#paint6_linear_2_70)"/>
<path d="M72.2 185.4C85.7 167.8 93 150.9 100.1 134.7C108.7 114.9 116.7 96.3999 135.1 81.2999C152.4 67.0999 169.8 65.1999 192 62.6999C212.5 60.3999 236.1 57.7999 266.8 45.0999C300.3 31.1999 324 31.1999 338 33.6999C342.9 34.5999 346.9 35.8 350.2 37V36C347 34.8 343 33.5999 338.4 32.7999C332.2 31.6999 324.3 31.0999 314.4 31.8999C301.6 32.8999 285.6 36.3999 266.5 44.2999C236 56.8999 212.5 59.4999 192 61.7999C169.6 64.2999 152.1 66.1999 134.6 80.5999C116 95.7999 107.9 114.5 99.3 134.4C92.3 150.6 85 167.4 71.5 184.9C45.9 218.3 32.7 252 32.8 283.6H33.7C33.6 252.2 46.7 218.7 72.2 185.4Z" fill="url(#paint7_linear_2_70)"/>
<path d="M71.9 181.4C83.9 164.8 91.3 149 98.3 133.8C108.4 112.2 117 93.5999 136.7 78.6999C153.9 65.5999 171 63.6999 192.7 61.1999C213.3 58.8999 236.9 56.1999 267.5 43.1999C300.2 29.2999 323.7 28.9 337.7 31.1C342.7 31.9 346.8 33 350.1 34.1V33.1999C346.8 32.0999 342.8 31 338 30.3C332.2 29.4 324.8 28.8999 315.8 29.6999C302.8 30.6999 286.6 34.3 267.1 42.5C236.7 55.4 213.2 58.0999 192.7 60.3999C171.6 62.7999 153.6 64.8 136.2 78.1C116.3 93.2 107.6 111.9 97.5 133.6C90.4 148.8 83.1 164.5 71.1 181C45.1 216.9 31.8 251.3 31.6 283.7H32.5C32.7 251.4 45.9 217.2 71.9 181.4Z" fill="url(#paint8_linear_2_70)"/>
<path d="M350.2 39C347 37.7 343.2 36.5 338.6 35.5C332.1 34.2 323.6 33.3999 312.9 34.1999C300.2 35.1999 284.5 38.5999 265.7 46.1999C235 58.5999 211.6 61.0999 191.1 63.2999C168.3 65.6999 150.4 67.6999 132.9 83.1999C115.4 98.6999 108.2 116.7 100.5 135.8C93.7 152.9 86.6 170.6 71.8 188.8C56.2 208.1 45.2 228.1 39.1 248.3C35.5 260.4 33.7 272.1 33.8 283.6H34.7C34.4 253 47.5 220.3 72.6 189.3C87.5 170.9 94.6 153.1 101.5 136C109.1 117 116.3 99.0999 133.6 83.6999C150.9 68.3999 168.6 66.4999 191.2 64.0999C211.7 61.8999 235.2 59.3999 266.1 46.8999C300.5 32.9999 324.3 33.3999 338.3 36.2999C343.1 37.2999 347 38.5999 350.2 39.8999V39Z" fill="url(#paint9_linear_2_70)"/>
<path d="M23.3 275C29.9 238.5 46.2 206.3 70.2 161.7C72.7 157 75.1 152.4 77.5 147.9C97.3 110.4 112.8 80.8999 144.8 65.8999C160.9 58.2999 177.2 56.2999 194.5 54.1999C216.2 51.5999 241 48.4999 271.3 33.8999C308.2 16.0999 336 17 350.3 19.5V18.5999C344.1 17.4999 335.3 16.7999 324.5 17.6999C310.1 18.8999 292 22.9999 270.9 33.1999C240.8 47.7999 216.1 50.7999 194.5 53.3999C177.1 55.4999 160.8 57.4999 144.5 65.1999C112.3 80.3999 96.7 110 76.8 147.7C74.4 152.2 72 156.8 69.5 161.5C45.5 206.2 29.2 238.4 22.6 275C22.1 277.8 21.6 280.8 21.1 283.8H22C22.3 280.7 22.8 277.7 23.3 275Z" fill="url(#paint10_linear_2_70)"/>
<path d="M25.2 279.2C29.9 242.2 46.1 208.3 70.4 165.7C75.3 157.2 79.7 148.9 83.9 141C100.5 110 114.7 83.4 143 68.5C159.5 59.8 175.6 57.9 194.3 55.6C215.6 53 240.1 50 270.3 35.8C308.2 18 335.9 19.6 350 22.5V21.6C343.4 20.3 334.1 19.1999 322.2 20.1999C308.1 21.3999 290.5 25.4 269.9 35C239.8 49.1 215.5 52.0999 194.2 54.6999C175.4 56.9999 159.2 58.9999 142.5 67.6999C113.9 82.6999 99.6 109.4 83 140.6C78.8 148.5 74.4 156.8 69.5 165.3C45.1 208 28.9 242 24.1 279.1C23.9 280.6 23.7 282.1 23.5 283.7H24.4C24.9 282.1 25.1 280.6 25.2 279.2Z" fill="url(#paint11_linear_2_70)"/>
<path d="M27.2 283.4C29.6 249.8 42.7 215.8 70.8 169.6C77.7 158.2 83.5 147.3 89 136.9C103.5 109.4 116 85.7999 141.5 71.0999C158.3 61.3999 174.9 59.3999 194.2 56.9999C215.3 54.4999 239.4 51.4999 269.7 37.6999C308.5 19.8999 336.1 22.0999 350.1 25.4999V24.5999C343.2 22.9999 333.3 21.6999 320.5 22.6999C306.6 23.7999 289.5 27.6999 269.3 36.9999C239.2 50.7999 215.2 53.6999 194.2 56.1999C174.7 58.5999 158.1 60.5999 141.1 70.3999C115.4 85.2999 102.9 109 88.3 136.6C82.8 147.1 77 157.9 70.1 169.3C41.9 215.6 28.8 249.7 26.3 283.5C26.3 283.6 26.3 283.7 26.3 283.8H27.2C27.2 283.6 27.2 283.5 27.2 283.4Z" fill="url(#paint12_linear_2_70)"/>
<path d="M71.2 173.5C80 159.9 86.6 147 93 134.6C105.8 109.7 116.8 88.2999 140 73.4999C157 62.6999 174 60.5999 193.9 58.2999C214.8 55.7999 238.7 52.9999 269 39.4999C308.8 21.7999 336.3 24.4999 350.2 28.3999V27.3999C346.7 26.4999 342.5 25.5999 337.5 25.0999C332.5 24.5999 326.3 24.3999 319.1 24.9999C305.8 26.0999 288.8 29.7999 268.6 38.7999C238.4 52.1999 214.6 55.0999 193.8 57.5999C173.8 59.9999 156.6 61.9999 139.4 72.9999C116 87.8999 105 109.4 92.1 134.4C85.7 146.8 79.1 159.6 70.4 173.2C43.3 215.1 29.9 250.3 28.4 283.7H29.3C30.8 250.4 44.2 215.3 71.2 173.5Z" fill="url(#paint13_linear_2_70)"/>
<defs>
<linearGradient id="paint0_linear_2_70" x1="147.547" y1="217.033" x2="262.902" y2="-47.0838" gradientUnits="userSpaceOnUse">
<stop offset="0.00837989" stop-color="#6F2656"/>
<stop offset="1" stop-color="#009FE3"/>
</linearGradient>
<linearGradient id="paint1_linear_2_70" x1="145.756" y1="216.406" x2="262.336" y2="-50.5176" gradientUnits="userSpaceOnUse">
<stop offset="0.00837989" stop-color="#6F2656"/>
<stop offset="1" stop-color="#009FE3"/>
</linearGradient>
<linearGradient id="paint2_linear_2_70" x1="143.723" y1="215.683" x2="261.534" y2="-54.0593" gradientUnits="userSpaceOnUse">
<stop offset="0.00837989" stop-color="#6F2656"/>
<stop offset="1" stop-color="#009FE3"/>
</linearGradient>
<linearGradient id="paint3_linear_2_70" x1="150.543" y1="218.094" x2="263.478" y2="-40.4839" gradientUnits="userSpaceOnUse">
<stop offset="0.00837989" stop-color="#6F2656"/>
<stop offset="1" stop-color="#009FE3"/>
</linearGradient>
<linearGradient id="paint4_linear_2_70" x1="156.351" y1="221.249" x2="263.804" y2="-24.7764" gradientUnits="userSpaceOnUse">
<stop offset="0.00837989" stop-color="#6F2656"/>
<stop offset="1" stop-color="#009FE3"/>
</linearGradient>
<linearGradient id="paint5_linear_2_70" x1="141.529" y1="214.89" x2="260.575" y2="-57.6812" gradientUnits="userSpaceOnUse">
<stop offset="0.00837989" stop-color="#6F2656"/>
<stop offset="1" stop-color="#009FE3"/>
</linearGradient>
<linearGradient id="paint6_linear_2_70" x1="149.133" y1="217.587" x2="263.27" y2="-43.7447" gradientUnits="userSpaceOnUse">
<stop offset="0.00837989" stop-color="#6F2656"/>
<stop offset="1" stop-color="#009FE3"/>
</linearGradient>
<linearGradient id="paint7_linear_2_70" x1="158.291" y1="223.026" x2="263.834" y2="-18.6257" gradientUnits="userSpaceOnUse">
<stop offset="0.00837989" stop-color="#6F2656"/>
<stop offset="1" stop-color="#009FE3"/>
</linearGradient>
<linearGradient id="paint8_linear_2_70" x1="157.332" y1="222.102" x2="263.812" y2="-21.6964" gradientUnits="userSpaceOnUse">
<stop offset="0.00837989" stop-color="#6F2656"/>
<stop offset="1" stop-color="#009FE3"/>
</linearGradient>
<linearGradient id="paint9_linear_2_70" x1="159.252" y1="224.01" x2="263.884" y2="-15.5578" gradientUnits="userSpaceOnUse">
<stop offset="0.00837989" stop-color="#6F2656"/>
<stop offset="1" stop-color="#009FE3"/>
</linearGradient>
<linearGradient id="paint10_linear_2_70" x1="151.852" y1="218.605" x2="263.607" y2="-37.272" gradientUnits="userSpaceOnUse">
<stop offset="0.00837989" stop-color="#6F2656"/>
<stop offset="1" stop-color="#009FE3"/>
</linearGradient>
<linearGradient id="paint11_linear_2_70" x1="153.059" y1="219.146" x2="263.665" y2="-34.1013" gradientUnits="userSpaceOnUse">
<stop offset="0.00837989" stop-color="#6F2656"/>
<stop offset="1" stop-color="#009FE3"/>
</linearGradient>
<linearGradient id="paint12_linear_2_70" x1="154.221" y1="219.771" x2="263.723" y2="-30.9478" gradientUnits="userSpaceOnUse">
<stop offset="0.00837989" stop-color="#6F2656"/>
<stop offset="1" stop-color="#009FE3"/>
</linearGradient>
<linearGradient id="paint13_linear_2_70" x1="155.326" y1="220.47" x2="263.789" y2="-27.8698" gradientUnits="userSpaceOnUse">
<stop offset="0.00837989" stop-color="#6F2656"/>
<stop offset="1" stop-color="#009FE3"/>
</linearGradient>
</defs>
</svg>
