<svg width="41" height="68" viewBox="0 0 41 68" fill="none" xmlns="http://www.w3.org/2000/svg">
<path d="M1.90001 65C2.60001 65 3.10002 65.5 3.10002 66.2C3.10002 66.9 2.60001 67.4 1.90001 67.4C1.20001 67.4 0.700012 66.9 0.700012 66.2C0.700012 65.5 1.20001 65 1.90001 65ZM0.700012 56.9C0.700012 57.6 1.20001 58.1 1.90001 58.1C2.60001 58.1 3.10002 57.6 3.10002 56.9C3.10002 56.2 2.60001 55.7 1.90001 55.7C1.20001 55.7 0.700012 56.3 0.700012 56.9ZM0.700012 47.7C0.700012 48.4 1.20001 48.9 1.90001 48.9C2.60001 48.9 3.10002 48.4 3.10002 47.7C3.10002 47 2.60001 46.5 1.90001 46.5C1.20001 46.5 0.700012 47 0.700012 47.7ZM0.700012 38.4C0.700012 39.1 1.20001 39.6 1.90001 39.6C2.60001 39.6 3.10002 39.1 3.10002 38.4C3.10002 37.7 2.60001 37.2 1.90001 37.2C1.20001 37.2 0.700012 37.7 0.700012 38.4ZM0.700012 29.1C0.700012 29.8 1.20001 30.3 1.90001 30.3C2.60001 30.3 3.10002 29.8 3.10002 29.1C3.10002 28.4 2.60001 27.9 1.90001 27.9C1.20001 27.9 0.700012 28.5 0.700012 29.1ZM0.700012 19.8C0.700012 20.5 1.20001 21 1.90001 21C2.60001 21 3.10002 20.5 3.10002 19.8C3.10002 19.1 2.60001 18.6 1.90001 18.6C1.20001 18.6 0.700012 19.2 0.700012 19.8ZM0.700012 10.6C0.700012 11.3 1.20001 11.8 1.90001 11.8C2.60001 11.8 3.10002 11.3 3.10002 10.6C3.10002 9.90001 2.60001 9.39999 1.90001 9.39999C1.20001 9.39999 0.700012 9.90001 0.700012 10.6ZM0.700012 1.30002C0.700012 2.00002 1.20001 2.5 1.90001 2.5C2.60001 2.5 3.10002 2.00002 3.10002 1.30002C3.10002 0.600018 2.60001 0.100006 1.90001 0.100006C1.20001 0.100006 0.700012 0.600018 0.700012 1.30002ZM10.1 66.2C10.1 66.9 10.6 67.4 11.3 67.4C12 67.4 12.5 66.9 12.5 66.2C12.5 65.5 12 65 11.3 65C10.6 65 10.1 65.5 10.1 66.2ZM10.1 56.9C10.1 57.6 10.6 58.1 11.3 58.1C12 58.1 12.5 57.6 12.5 56.9C12.5 56.2 12 55.7 11.3 55.7C10.6 55.7 10.1 56.3 10.1 56.9ZM10.1 47.7C10.1 48.4 10.6 48.9 11.3 48.9C12 48.9 12.5 48.4 12.5 47.7C12.5 47 12 46.5 11.3 46.5C10.6 46.5 10.1 47 10.1 47.7ZM10.1 38.4C10.1 39.1 10.6 39.6 11.3 39.6C12 39.6 12.5 39.1 12.5 38.4C12.5 37.7 12 37.2 11.3 37.2C10.6 37.2 10.1 37.7 10.1 38.4ZM10.1 29.1C10.1 29.8 10.6 30.3 11.3 30.3C12 30.3 12.5 29.8 12.5 29.1C12.5 28.4 12 27.9 11.3 27.9C10.6 27.9 10.1 28.5 10.1 29.1ZM10.1 19.8C10.1 20.5 10.6 21 11.3 21C12 21 12.5 20.5 12.5 19.8C12.5 19.1 12 18.6 11.3 18.6C10.6 18.6 10.1 19.2 10.1 19.8ZM10.1 10.6C10.1 11.3 10.6 11.8 11.3 11.8C12 11.8 12.5 11.3 12.5 10.6C12.5 9.90001 12 9.39999 11.3 9.39999C10.6 9.39999 10.1 9.90001 10.1 10.6ZM10.1 1.30002C10.1 2.00002 10.6 2.5 11.3 2.5C12 2.5 12.5 2.00002 12.5 1.30002C12.5 0.600018 12 0.100006 11.3 0.100006C10.6 0.100006 10.1 0.600018 10.1 1.30002ZM19.5 66.2C19.5 66.9 20 67.4 20.7 67.4C21.4 67.4 21.9 66.9 21.9 66.2C21.9 65.5 21.4 65 20.7 65C20 65 19.5 65.5 19.5 66.2ZM19.5 56.9C19.5 57.6 20 58.1 20.7 58.1C21.4 58.1 21.9 57.6 21.9 56.9C21.9 56.2 21.4 55.7 20.7 55.7C20 55.7 19.5 56.3 19.5 56.9ZM19.5 47.7C19.5 48.4 20 48.9 20.7 48.9C21.4 48.9 21.9 48.4 21.9 47.7C21.9 47 21.4 46.5 20.7 46.5C20 46.5 19.5 47 19.5 47.7ZM19.5 38.4C19.5 39.1 20 39.6 20.7 39.6C21.4 39.6 21.9 39.1 21.9 38.4C21.9 37.7 21.4 37.2 20.7 37.2C20 37.2 19.5 37.7 19.5 38.4ZM19.5 29.1C19.5 29.8 20 30.3 20.7 30.3C21.4 30.3 21.9 29.8 21.9 29.1C21.9 28.4 21.4 27.9 20.7 27.9C20 27.9 19.5 28.5 19.5 29.1ZM19.5 19.8C19.5 20.5 20 21 20.7 21C21.4 21 21.9 20.5 21.9 19.8C21.9 19.1 21.4 18.6 20.7 18.6C20 18.6 19.5 19.2 19.5 19.8ZM19.5 10.6C19.5 11.3 20 11.8 20.7 11.8C21.4 11.8 21.9 11.3 21.9 10.6C21.9 9.90001 21.4 9.39999 20.7 9.39999C20 9.39999 19.5 9.90001 19.5 10.6ZM19.5 1.30002C19.5 2.00002 20 2.5 20.7 2.5C21.4 2.5 21.9 2.00002 21.9 1.30002C21.9 0.600018 21.4 0.100006 20.7 0.100006C20 0.100006 19.5 0.600018 19.5 1.30002ZM28.9 66.2C28.9 66.9 29.4 67.4 30.1 67.4C30.8 67.4 31.3 66.9 31.3 66.2C31.3 65.5 30.8 65 30.1 65C29.4 65 28.9 65.5 28.9 66.2ZM28.9 56.9C28.9 57.6 29.4 58.1 30.1 58.1C30.8 58.1 31.3 57.6 31.3 56.9C31.3 56.2 30.8 55.7 30.1 55.7C29.4 55.7 28.9 56.3 28.9 56.9ZM28.9 47.7C28.9 48.4 29.4 48.9 30.1 48.9C30.8 48.9 31.3 48.4 31.3 47.7C31.3 47 30.8 46.5 30.1 46.5C29.4 46.5 28.9 47 28.9 47.7ZM28.9 38.4C28.9 39.1 29.4 39.6 30.1 39.6C30.8 39.6 31.3 39.1 31.3 38.4C31.3 37.7 30.8 37.2 30.1 37.2C29.4 37.2 28.9 37.7 28.9 38.4ZM28.9 29.1C28.9 29.8 29.4 30.3 30.1 30.3C30.8 30.3 31.3 29.8 31.3 29.1C31.3 28.4 30.8 27.9 30.1 27.9C29.4 27.9 28.9 28.5 28.9 29.1ZM28.9 19.8C28.9 20.5 29.4 21 30.1 21C30.8 21 31.3 20.5 31.3 19.8C31.3 19.1 30.8 18.6 30.1 18.6C29.4 18.6 28.9 19.2 28.9 19.8ZM28.9 10.6C28.9 11.3 29.4 11.8 30.1 11.8C30.8 11.8 31.3 11.3 31.3 10.6C31.3 9.90001 30.8 9.39999 30.1 9.39999C29.4 9.39999 28.9 9.90001 28.9 10.6ZM28.9 1.30002C28.9 2.00002 29.4 2.5 30.1 2.5C30.8 2.5 31.3 2.00002 31.3 1.30002C31.3 0.600018 30.8 0.100006 30.1 0.100006C29.4 0.100006 28.9 0.600018 28.9 1.30002ZM38.3 66.2C38.3 66.9 38.8 67.4 39.5 67.4C40.2 67.4 40.7 66.9 40.7 66.2C40.7 65.5 40.2 65 39.5 65C38.9 65 38.3 65.5 38.3 66.2ZM38.3 56.9C38.3 57.6 38.8 58.1 39.5 58.1C40.2 58.1 40.7 57.6 40.7 56.9C40.7 56.2 40.2 55.7 39.5 55.7C38.9 55.7 38.3 56.3 38.3 56.9ZM38.3 47.7C38.3 48.4 38.8 48.9 39.5 48.9C40.2 48.9 40.7 48.4 40.7 47.7C40.7 47 40.2 46.5 39.5 46.5C38.9 46.5 38.3 47 38.3 47.7ZM38.3 38.4C38.3 39.1 38.8 39.6 39.5 39.6C40.2 39.6 40.7 39.1 40.7 38.4C40.7 37.7 40.2 37.2 39.5 37.2C38.9 37.2 38.3 37.7 38.3 38.4ZM38.3 29.1C38.3 29.8 38.8 30.3 39.5 30.3C40.2 30.3 40.7 29.8 40.7 29.1C40.7 28.4 40.2 27.9 39.5 27.9C38.9 27.9 38.3 28.5 38.3 29.1ZM38.3 19.8C38.3 20.5 38.8 21 39.5 21C40.2 21 40.7 20.5 40.7 19.8C40.7 19.1 40.2 18.6 39.5 18.6C38.9 18.6 38.3 19.2 38.3 19.8ZM38.3 10.6C38.3 11.3 38.8 11.8 39.5 11.8C40.2 11.8 40.7 11.3 40.7 10.6C40.7 9.90001 40.2 9.39999 39.5 9.39999C38.9 9.39999 38.3 9.90001 38.3 10.6ZM38.3 1.30002C38.3 2.00002 38.8 2.5 39.5 2.5C40.2 2.5 40.7 2.00002 40.7 1.30002C40.7 0.600018 40.2 0.100006 39.5 0.100006C38.9 0.100006 38.3 0.600018 38.3 1.30002Z" fill="white"/>
</svg>
