<svg width="11" height="9" viewBox="0 0 11 9" fill="none" xmlns="http://www.w3.org/2000/svg">
<path d="M10.5191 7.24488C10.5191 7.47001 10.4441 7.69514 10.369 7.84523L7.06714 4.16812L10.369 1.31647C10.5191 1.5416 10.5942 1.76673 10.5942 1.99186V7.24488H10.5191ZM5.26608 4.8435L9.84372 0.86621C9.69363 0.791166 9.46851 0.716125 9.24338 0.716125H1.36385C1.13872 0.716125 0.913579 0.791166 0.763493 0.86621L5.26608 4.8435ZM6.54183 4.61837L5.49123 5.51888C5.41618 5.59393 5.34113 5.59393 5.26608 5.59393C5.19104 5.59393 5.116 5.59393 5.04096 5.51888L3.99036 4.61837L0.61342 8.37052C0.83855 8.52061 1.06367 8.59566 1.2888 8.59566H9.16834C9.39347 8.59566 9.69363 8.52061 9.84372 8.37052L6.54183 4.61837ZM0.238205 1.31647C0.0881184 1.5416 0.0130615 1.76673 0.0130615 1.99186V7.24488C0.0130615 7.47001 0.0881138 7.69514 0.163157 7.84523L3.46505 4.16812L0.238205 1.31647Z" fill="#009FE3"/>
</svg>
