<svg width="392" height="355" viewBox="0 0 392 355" fill="none" xmlns="http://www.w3.org/2000/svg">
<path d="M22.9 353.6C9.2 354.7 0.5 353.7 0.3 353.6L0.6 352.8C1 352.9 44.2 358 91.8 332.1C126.1 313.4 156.6 310.8 185.8 308.3C197.5 307.3 209.5 306.3 221.5 304.2C261.1 297.5 296.1 264.2 313.6 216.5C324.3 187.3 337.6 165.9 350.4 145.2C358.2 132.6 366.3 119.6 373.9 104.7C394.2 65.3 390.2 -17.5 390.1 -18.4L391.1 -18.5C391.1 -17.6 395.2 65.4 374.9 105.1C367.2 120.1 359.2 133.1 351.4 145.7C338 167.3 325.4 187.7 314.7 216.8C306.1 240.1 293.3 260.4 277.6 275.7C261.3 291.6 242 301.8 221.7 305.2C209.6 307.2 197.6 308.3 185.9 309.3C156.9 311.8 126.5 314.4 92.4 332.9C65.6 347.4 40.2 352.2 22.9 353.6ZM93.1 331C126.6 313.4 155.6 310.6 183.4 307.9C196.5 306.6 209.9 305.4 223.4 302.5C243.4 298.3 261.6 287.9 277.5 271.6C292.2 256.6 304.9 236.3 314.2 212.9C324.7 186.6 336.5 166.5 347.9 147.1C356.7 132.1 365 117.9 372.8 101C391 61.6 388.2 -17.7 388.2 -18.5L387.2 -18.4C387.2 -17.6 390 61.5 371.9 100.6C364.1 117.5 355.8 131.7 347 146.7C335.6 166.2 323.8 186.3 313.3 212.7C293.8 261.5 261.2 293.8 223.2 301.8C209.8 304.6 196.4 305.9 183.3 307.2C155.4 309.9 126.3 312.6 92.5 330.4C43.1 356.4 1 349.6 0.5 349.6L0.2 350.4C0.4 350.4 10.4 352 26.2 350.8C43.4 349.3 67.3 344.6 93.1 331ZM93.9 329.1C127 312.3 154.9 309.4 181.6 306.6C196.5 305.1 210.5 303.6 225.1 299.9C262 290.5 291.7 260.1 313.8 208.9C323.7 186.1 333.8 167.9 343.7 150.3C353.5 132.8 362.8 116.2 370.8 96.7C386.8 57.8 385.3 -17.7 385.3 -18.5L384.3 -18.4C384.3 -17.6 385.8 57.7 369.9 96.5C361.9 116 352.7 132.5 342.9 150.1C333 167.8 322.9 186 313 208.8C291 259.7 261.6 289.9 225 299.2C210.5 302.9 196.5 304.3 181.6 305.8C154.8 308.6 126.7 311.4 93.4 328.4C42.2 354.5 1.1 346.2 0.7 346.1L0.3 346.9C0.5 346.9 11.7 349.2 29.5 347.8C46.3 346.5 68.9 341.9 93.9 329.1ZM94.7 327.3C127.4 311.1 154.5 308.2 180.4 305.4C196.4 303.7 211.4 302.1 227 297.4C262.1 286.9 288.6 258.6 313.6 205.1C322.2 186.7 330.5 171.3 338.6 156.3C350.4 134.4 360.7 115.4 368.9 92.5C382.7 53.9 382.5 -17.8 382.5 -18.5L381.5 -18.4C381.5 -17.7 381.7 53.9 368 92.4C359.8 115.2 349.6 134.2 337.8 156.1C329.7 171.1 321.4 186.6 312.8 204.9C288 258.1 261.6 286.3 226.9 296.6C211.5 301.2 196.5 302.8 180.5 304.5C154.5 307.3 127.3 310.2 94.4 326.5C41.5 352.6 1.3 342.8 0.9 342.6L0.5 343.4C0.7 343.5 12.9 346.5 32.6 344.9C48.8 343.7 70.4 339.3 94.7 327.3ZM95.4 325.4C127.9 309.8 154.2 306.9 179.4 304.1C196.4 302.2 212.3 300.4 228.6 294.8C266.5 281.7 288.9 249.5 313.1 201.2C319.5 188.4 325.6 176.9 331.6 165.8C345.9 138.9 358.4 115.5 366.7 88.3C378.3 50.2 379.4 -17.8 379.4 -18.4L378.4 -18.3C378.4 -17.6 377.3 50.2 365.7 88.3C357.4 115.4 345 138.8 330.7 165.6C324.8 176.7 318.6 188.2 312.2 201C288.1 249.1 265.8 281.2 228.3 294.1C212.1 299.7 196.3 301.4 179.4 303.3C154.1 306.1 127.6 309.1 95 324.7C40.3 350.9 1.1 339.5 0.7 339.3L0.2 340.1C0.4 340.2 13.5 344 35 342.3C51.1 341.1 71.8 336.7 95.4 325.4ZM96.2 323.5C128.5 308.5 155.4 305.4 178.9 302.8C196.7 300.8 213.5 298.9 230.4 292.2C270.1 276.6 289.8 240 312.7 197.3C315.9 191.3 319 185.6 322 180C341.1 144.8 356.4 116.8 364.5 84.1C374.1 46.3 376.5 -17.8 376.5 -18.4H375.5C375.5 -17.7 373.1 46.3 363.7 84.1C355.5 116.7 340.4 144.7 321.2 179.9C318.2 185.5 315.1 191.2 311.9 197.2C289 239.8 269.5 276.2 230.1 291.6C213.3 298.2 196.7 300.1 178.9 302.1C155.3 304.8 128.3 307.8 95.8 322.9C39.3 349.1 1.1 336.1 0.8 336L0.3 336.8C0.5 336.9 14.3 341.6 37.5 339.8C53.2 338.5 73.2 334.3 96.2 323.5ZM97 321.7C129.2 307.1 155.6 304.1 178.7 301.5C197.3 299.4 214.7 297.4 232.2 289.7C266.7 274.5 283.4 244.9 304.6 207.2C307.1 202.7 309.7 198.1 312.4 193.4C338 148.7 355.5 116.5 362.6 79.9C369.9 42.4 373.6 -17.9 373.6 -18.5H372.6C372.6 -17.9 368.9 42.4 361.6 79.8C354.5 116.3 337.1 148.5 311.5 193.1C308.8 197.8 306.2 202.4 303.7 206.9C282.5 244.4 265.9 273.9 231.8 288.9C214.5 296.5 197.2 298.5 178.7 300.6C155.5 303.2 129 306.3 96.6 320.9C38.3 347.2 1.2 332.6 0.8 332.5L0.2 333.3C0.4 333.4 14.9 339.1 39.7 337.1C55.1 336 74.5 331.8 97 321.7ZM97.8 319.8C130 305.7 156 302.7 178.7 300.1C198.8 297.8 216.1 295.8 233.9 287.1C264.4 272.1 279.7 245.4 297.5 214.2C302 206.3 306.7 198 311.9 189.5C338 146.8 355.3 112.8 360.4 75.7C365.5 38.6 370.5 -17.8 370.5 -18.4H369.5C369.4 -17.8 364.4 38.6 359.4 75.7C354.4 112.7 337.1 146.6 311 189.2C305.8 197.7 301.1 206 296.5 213.9C278.8 244.9 263.5 271.5 233.3 286.4C215.7 295.1 198.5 297 178.5 299.3C155.7 301.9 129.6 304.9 97.2 319.1C37.2 345.5 1 329.3 0.6 329.2L0 329.9C0.2 330 15.2 336.7 41.7 334.7C56.9 333.5 75.8 329.5 97.8 319.8ZM98.6 317.9C130.8 304.1 156.5 301.2 178.9 298.7C199.7 296.3 217.5 294.3 235.7 284.5C263.1 269.6 276.6 245.9 292.2 218.3C298.1 207.8 304.3 197 311.7 185.6C341.8 139.3 355.9 105.2 358.5 71.4C361.4 34.6 367.7 -17.9 367.8 -18.5H366.8C366.7 -18 360.4 34.6 357.5 71.4C354.9 105 340.9 139 310.9 185.2C303.5 196.6 297.3 207.5 291.4 217.9C275.9 245.4 262.5 269 235.3 283.7C217.4 293.4 199.6 295.4 179 297.8C156.5 300.3 130.7 303.3 98.3 317.1C36.5 343.6 1.3 325.8 1 325.6L0.3 326.3C0.5 326.4 15.9 334.2 44 332C58.6 331.1 77 327.2 98.6 317.9ZM99.3 316.1C131.5 302.7 157 299.8 179.2 297.3C200.6 294.9 219 292.9 237.3 281.9C262.3 267 274.1 245.5 287.9 220.5C294.7 208.1 301.8 195.3 311.2 181.7C341.3 138.1 355.7 101.8 356.3 67.2C356.9 30.8 364.6 -17.9 364.7 -18.4L363.7 -18.5C363.6 -18 355.9 30.7 355.3 67.2C354.7 101.6 340.4 137.8 310.4 181.3C301 194.9 293.9 207.8 287.1 220.2C273.4 245.1 261.6 266.5 236.9 281.3C218.8 292.1 200.5 294.1 179.3 296.5C157 299 131.4 301.8 99 315.3C35.4 341.8 1.2 322.5 0.9 322.3L0.2 323C0.3 323.1 9.1 328.1 25.7 329.7C31.1 330.2 37.6 330.4 45.4 329.8C59.6 328.8 77.7 325.1 99.3 316.1ZM100.1 314.2C132.4 301 157.7 298.3 179.8 295.9C201.8 293.5 220.6 291.4 239.2 279.3C262.1 264.3 272.6 244.5 284.8 221.3C292.1 207.4 299.7 193 310.9 177.7C341.6 135.8 355.8 98.3 354.3 62.9C352.7 26.9 361.8 -17.9 361.9 -18.4L360.9 -18.5C360.8 -18 351.7 26.9 353.3 63C354.9 98.3 340.7 135.6 310.1 177.3C298.9 192.6 291.3 207.1 283.9 221C271.8 244 261.4 263.8 238.6 278.6C220.3 290.5 201.6 292.6 179.8 295C157.6 297.4 132.3 300.2 99.7 313.4C34.3 340 1.1 319.1 0.8 318.9L0.1 319.6C0.2 319.7 8.7 325.1 25.4 327.1C31.2 327.8 38.5 328.1 47.1 327.4C61.2 326.4 78.9 322.8 100.1 314.2ZM100.9 312.3C133.4 299.4 158.5 296.7 180.5 294.4C203 292 222.3 290 240.9 276.7C262.2 261.6 271.5 242.9 282.3 221.2C289.8 206 297.7 190.3 310.5 173.8C341.9 133.2 356 94.6 352.1 58.6C348.3 22.9 358.7 -18 358.8 -18.4L357.8 -18.5C357.7 -18.1 347.2 22.9 351.1 58.8C354.9 94.6 340.9 133 309.7 173.4C296.8 190 289 205.8 281.4 221C270.6 242.6 261.4 261.2 240.3 276.1C221.9 289.2 203.7 291.1 180.4 293.6C158.4 295.9 133.1 298.6 100.5 311.6C65.6 325.4 40.5 325.8 25.5 323.7C9.1 321.4 1 315.6 0.9 315.5L0.1 316.1C0.2 316.2 8.5 322.1 25.1 324.4C31.3 325.3 39.2 325.8 48.8 325C62.7 324.1 80.1 320.6 100.9 312.3ZM101.7 310.5C134.4 297.9 159.4 295.3 181.3 293C205.2 290.5 224 288.6 242.7 274.2C262.6 259 271.2 240.3 280.4 220.4C287.9 204.2 295.7 187.4 310.1 169.9C342.4 130.5 356.2 90.7 350 54.4C343.9 19.1 355.7 -17.9 355.9 -18.2L355 -18.4C354.9 -18 343 19.1 349.1 54.7C355.3 90.8 341.5 130.4 309.4 169.6C295 187.2 287.1 204.1 279.6 220.3C270.4 240.1 261.8 258.6 242.2 273.7C223.7 287.9 205.1 289.8 181.4 292.3C159.4 294.6 134.3 297.2 101.5 309.9C65.5 323.6 40.2 323.6 25.2 321.1C8.8 318.4 1 312.2 0.9 312.1L0.1 312.7C0.2 312.8 8.2 319.1 24.8 321.9C31.4 323 39.9 323.6 50.4 322.8C64.2 321.8 81.2 318.4 101.7 310.5ZM102.5 308.6C135.4 296.2 160.4 293.7 182.2 291.5C206.6 289.1 225.7 287.1 244.5 271.6C263.2 256.1 270.9 238.1 279.1 219C286.4 201.9 294 184.2 309.8 166C326.5 146.7 338.3 126.7 344.8 106.5C351.1 86.8 352.2 67.9 348 50.1C339.7 15.1 352.9 -17.9 353 -18.2L352.1 -18.5C352 -18.2 338.7 15.1 347.1 50.3C355.7 86.5 342.2 127.3 309.1 165.5C293.2 183.9 285.6 201.7 278.3 218.8C270.1 237.8 262.5 255.7 244 271.1C225.5 286.4 206.6 288.3 182.4 290.7C160.5 292.9 135.4 295.4 102.3 307.9C65.5 321.8 40.1 321.4 25.1 318.5C8.8 315.4 1.2 308.8 1.1 308.7L0.3 309.3C0.4 309.4 8.1 316.1 24.7 319.3C31.6 320.6 40.8 321.4 52.2 320.6C65.6 319.5 82.3 316.2 102.5 308.6Z" fill="url(#paint0_linear_2_8)"/>
<defs>
<linearGradient id="paint0_linear_2_8" x1="163.358" y1="262.577" x2="311.723" y2="-77.1222" gradientUnits="userSpaceOnUse">
<stop offset="0.00837989" stop-color="#6F2656"/>
<stop offset="1" stop-color="#009FE3"/>
</linearGradient>
</defs>
</svg>
